<?xml version="1.0" encoding="utf-8"?>
<!-- Generator: Adobe Illustrator 23.0.6, SVG Export Plug-In . SVG Version: 6.00 Build 0)  -->
<svg version="1.1" xmlns="http://www.w3.org/2000/svg" xmlns:xlink="http://www.w3.org/1999/xlink" x="0px" y="0px"
	 viewBox="0 0 252 252" style="enable-background:new 0 0 252 252;" xml:space="preserve">
<style type="text/css">
	.st0{fill:#999999;}
	.st1{fill:#AA182C;}
	.st2{fill:#FFFFFF;}
</style>
<g id="Layer_1">
	<path class="st0" d="M160.78,162.89l-27.43,45.17l-5.67,41.17c66.39-1.16,120.04-54.49,121.6-120.8l-41.18,5.66L160.78,162.89z"/>
</g>
<g id="Layer_3">
	<path class="st0" d="M87.95,161.48l-45.15-27.4l-41.04-5.66c1.57,65.78,54.41,118.86,120.12,120.75l-5.67-41.24L87.95,161.48z"/>
</g>
<g id="Layer_4">
	<path class="st0" d="M162.41,89.13l45.83,27.82l41.04,5.64C247.8,56.56,194.64,3.33,128.65,1.68l5.67,41.27L162.41,89.13z"/>
</g>
<g id="Layer_5">
	<path class="st0" d="M89.3,88.75l27.88-45.94l5.66-41.13C56.64,3.09,3.25,56.43,1.76,122.6l41.17-5.64L89.3,88.75z"/>
</g>
<g id="Layer_2">
	<polygon class="st1" points="150.07,101.06 125.4,58.58 101.05,100.98 101.05,101.2 58.57,125.86 100.3,149.84 100.46,149.84 
		100.53,149.96 101.05,150.26 101.05,150.86 125.12,192.32 149.51,149.84 150.03,149.84 192.49,125.18 150.48,101.06 	"/>
	<polygon class="st2" points="143.79,125.44 125.53,154.11 107.27,125.44 125.53,96.77 	"/>
</g>
</svg>
